<svg width="64" height="64" viewBox="0 0 64 64" fill="none" xmlns="http://www.w3.org/2000/svg">
<g clip-path="url(#clip0_154814_5122)">
<path d="M46 0H18C8.05887 0 0 8.05887 0 18V46C0 55.9411 8.05887 64 18 64H46C55.9411 64 64 55.9411 64 46V18C64 8.05887 55.9411 0 46 0Z" fill="#292826"/>
<path d="M50.1352 38.3259C50.4722 38.2964 50.7451 38.4293 50.9539 38.7245C51.1885 39.0175 51.3297 39.4363 51.3773 39.9808C51.4658 40.992 51.2898 41.8174 50.8493 42.4568C49.7363 44.0696 48.5808 45.3464 47.3829 46.2873C46.1827 47.2022 44.714 47.7357 42.9767 47.8877C41.2914 48.0352 39.8126 47.7073 38.5405 46.9041C37.2943 46.0987 36.0432 44.6405 34.7873 42.5296C33.7774 40.8413 32.9898 39.6038 32.4246 38.8172C31.8571 38.0046 31.3111 37.4384 30.7867 37.1185C30.2882 36.7963 29.6856 36.627 28.9787 36.6104C28.9226 37.164 28.7741 38.9014 28.5333 41.8226C28.4393 43.1372 28.3788 43.9394 28.3519 44.2291C28.231 45.8335 27.819 47.0975 27.116 48.0212C26.4108 48.919 25.2673 49.4371 23.6856 49.5755C21.9484 49.7274 20.3614 49.3568 18.9246 48.4635C17.5115 47.5421 16.3625 46.2056 15.4777 44.4541C14.5907 42.6767 14.045 40.6211 13.8409 38.2875C13.4598 33.9315 13.8828 30.106 15.1099 26.8111C16.363 23.5139 18.2782 20.9165 20.8555 19.0189C23.4565 17.093 26.5461 15.9736 30.1243 15.6605C32.6135 15.4428 34.7337 15.6361 36.4848 16.2406C38.236 16.8451 39.5713 17.7734 40.4908 19.0254C41.4362 20.2752 41.9815 21.7298 42.1267 23.3893C42.2537 24.8413 42.0285 26.298 41.4509 27.7594C40.897 29.1926 39.9794 30.5009 38.6982 31.6842C37.4169 32.8675 35.8137 33.8047 33.8885 34.4957C35.1626 34.7238 36.1696 35.1844 36.9095 35.8774C37.6494 36.5703 38.42 37.6133 39.2212 39.0064C40.0833 40.4986 40.8962 41.5771 41.6598 42.2418C42.4493 42.9043 43.3108 43.1947 44.2442 43.1131C45.074 43.0405 45.841 42.699 46.5453 42.0888C47.2473 41.4525 48.1098 40.4104 49.1327 38.9622C49.4121 38.572 49.7462 38.3599 50.1352 38.3259ZM23.608 37.0411C22.7264 37.1182 22.0989 36.9641 21.7255 36.5787C21.3781 36.1911 21.1817 35.738 21.1363 35.2194C21.0819 34.5971 21.2332 34.0875 21.5904 33.6904C21.9735 33.2911 22.4244 33.0688 22.9429 33.0234L23.9153 32.9384C24.1078 30.361 24.3051 28.136 24.507 26.2633C24.6966 24.5484 25.7119 23.6105 27.5529 23.4494C29.0308 23.3201 29.8277 23.9166 29.9434 25.239C29.9683 25.5242 29.9746 25.7457 29.9623 25.9036L29.3604 32.462C30.7537 32.2617 31.9947 31.8135 33.0834 31.1173C34.1981 30.4188 35.0459 29.5086 35.6271 28.3865C36.2342 27.2622 36.4787 26.0259 36.3608 24.6775C36.2178 23.044 35.5481 21.8093 34.3515 20.9734C33.1549 20.1375 31.4805 19.8137 29.3284 20.002C26.7874 20.2243 24.6131 21.0547 22.8055 22.493C21.0216 23.9032 19.7069 25.8994 18.8616 28.4816C18.0141 31.0379 17.7457 34.0921 18.0564 37.6444C18.2016 39.3038 18.4949 40.7152 18.9363 41.8784C19.3778 43.0417 19.8709 43.8999 20.4157 44.4532C20.9605 45.0064 21.4534 45.2638 21.8941 45.2252C22.2312 45.1957 22.4887 45.0034 22.6667 44.6481C22.8705 44.2907 23.0044 43.7303 23.0683 42.967L23.608 37.0411Z" fill="#E1D4C9"/>
</g>
<defs>
<clipPath id="clip0_154814_5122">
<rect width="64" height="64" fill="white"/>
</clipPath>
</defs>
</svg>
